#!OML:ASF Y:\EmotionMaleHayes\Project 1\Capture day 1\Session 1\Male1.ASF
:FULLY-SPECIFIED
:DEGREES
361
root 25.3346 17.3243 -10.1747 -4.36833 -35.534 -373.508
lowerback 25.1729 6.42383 2.74542
upperback 4.09283 8.54411 -3.57381
thorax -8.33275 3.90216 -8.17852
lowerneck -22.6833 1.71295 4.81662
upperneck 19.9023 2.45815 -6.98359
head 10.2551 0.63889 -2.91758
rclavicle -1.24042e-013 -3.18055e-015
rhumerus -42.3882 -13.3053 0.622334
rradius 63.4433
rwrist -50.9102
rhand -26.2851 -56.0179
rfingers 7.12502
rthumb 0.27037 -85.9975
lclavicle -1.24042e-013 -3.18055e-015
lhumerus -76.0266 13.7957 74.5581
lradius 24.9334
lwrist -20.6799
lhand 28.6957 -22.4583
lfingers 7.12502
lthumb 52.5306 -2.67316
rfemur -1.19959 -28.256 23.5556
rtibia 64.0075
rfoot -1.55574 4.76975
rtoes 8.98302
lfemur -33.4752 11.7538 -32.163
ltibia 23.6657
lfoot 15.4616 -6.80486
ltoes 11.8596
362
root 25.5261 17.1968 -10.292 -4.38593 -33.4969 -372.638
lowerback 25.432 6.23489 2.49084
upperback 4.30769 8.21334 -3.70639
thorax -8.2872 3.75424 -8.10527
lowerneck -22.3429 1.79637 5.37576
upperneck 19.5699 2.42416 -7.15714
head 10.0802 0.654338 -3.06984
rclavicle 4.92986e-014 6.36111e-015
rhumerus -40.8393 -14.9144 0.769326
rradius 62.7715
rwrist -49.8517
rhand -27.2771 -57.5066
rfingers 7.12502
rthumb -0.687692 -87.4852
lclavicle 4.92986e-014 6.36111e-015
lhumerus -76.9761 13.6495 72.628
lradius 24.8105
lwrist -18.2305
lhand 27.4572 -22.2255
lfingers 7.12502
lthumb 51.407 -1.77412
rfemur -1.87361 -26.2107 25.4453
rtibia 60.5946
rfoot -1.73726 1.62167
rtoes 12.5244
lfemur -35.605 9.563 -33.5838
ltibia 22.6692
lfoot 15.9245 -7.53643
ltoes 17.2333
363
root 25.7117 17.065 -10.4027 -4.52787 -31.7255 -371.95
lowerback 25.8769 6.05851 2.23927
upperback 4.56753 7.91651 -3.64822
thorax -8.30815 3.61921 -7.84866
lowerneck -22.0858 1.99013 5.3716
upperneck 19.381 2.67036 -7.04841
head 9.9822 0.786159 -2.98789
rclavicle -4.21423e-014 0
rhumerus -38.7981 -16.6821 0.799723
rradius 62.2128
rwrist -48.7475
rhand -28.1951 -58.217
rfingers 7.12502
rthumb -1.5743 -88.191
lclavicle -4.21423e-014 0
lhumerus -77.965 13.7667 70.5208
lradius 24.4293
lwrist -16.0513
lhand 25.8444 -22.5782
lfingers 7.12502
lthumb 49.9352 -1.32155
rfemur -2.01455 -24.0099 27.0321
rtibia 56.9199
rfoot -1.87207 -1.38422
rtoes 16.7973
lfemur -37.521 9.14982 -35.2475
ltibia 21.6175
lfoot 16.8709 -9.5917
ltoes 16.5847
364
root 25.883 16.9279 -10.5069 -4.67625 -30.3197 -371.455
lowerback 26.263 6.01554 1.99332
upperback 4.87065 7.80335 -3.48351
thorax -8.23719 3.5776 -7.5148
lowerneck -21.7757 2.12685 5.3572
upperneck 19.0532 2.87894 -7.11858
head 9.82582 0.880571 -2.97206
rclavicle -6.75868e-014 3.33958e-014
rhumerus -36.8893 -18.0943 0.732549
rradius 62.1364
rwrist -48.1104
rhand -28.6735 -57.9242
rfingers 7.12502
rthumb -2.0364 -87.8942
lclavicle -6.75868e-014 3.33958e-014
lhumerus -78.8554 13.7657 68.1864
lradius 23.8766
lwrist -14.1227
lhand 24.3304 -22.9823
lfingers 7.12502
lthumb 48.5457 -1.02821
rfemur -1.77706 -21.7189 28.4227
rtibia 53.2182
rfoot -2.63349 -3.62614
rtoes 25.5759
lfemur -38.9474 7.43928 -35.637
ltibia 20.4594
lfoot 16.2963 -9.34475
ltoes 20.5722
365
root 26.0401 16.7843 -10.6066 -4.72749 -29.3058 -371.188
lowerback 26.459 6.03107 1.73085
upperback 5.1881 7.76569 -3.27998
thorax -8.05068 3.57806 -7.12405
lowerneck -21.3698 2.28486 5.81804
upperneck 18.6517 3.02281 -7.44357
head 9.63415 0.953477 -3.13475
rclavicle 1.51076e-014 4.77083e-015
rhumerus -34.9783 -18.7244 0.172911
rradius 62.4451
rwrist -47.9988
rhand -29.0812 -57.3462
rfingers 7.12502
rthumb -2.43013 -87.3121
lclavicle 1.51076e-014 4.77083e-015
lhumerus -79.6909 13.8515 65.4993
lradius 23.2532
lwrist -12.4426
lhand 22.8658 -22.7957
lfingers 7.12502
lthumb 47.1948 -0.215838
rfemur -1.4622 -19.9216 29.9652
rtibia 52.2404
rfoot -7.75221 -2.30661
rtoes 14.6258
lfemur -40.8193 7.73165 -36.0838
ltibia 20.204
lfoot 15.8381 -9.60466
ltoes 21.4132
366
root 26.201 16.6334 -10.7002 -4.75974 -28.5172 -371.115
lowerback 26.7515 6.02628 1.69738
upperback 5.44024 7.76347 -3.07834
thorax -7.94922 3.58459 -6.89354
lowerneck -20.6035 2.52519 7.98638
upperneck 18.4541 2.92984 -8.41152
head 9.46798 0.9739 -3.84879
rclavicle -4.21423e-014 1.74931e-014
rhumerus -32.3983 -21.114 -0.734138
rradius 62.2737
rwrist -45.8974
rhand -28.611 -56.2888
rfingers 7.12502
rthumb -1.97598 -86.2594
lclavicle -4.21423e-014 1.74931e-014
lhumerus -80.4579 13.7877 62.8426
lradius 22.575
lwrist -11.0845
lhand 21.0659 -22.3635
lfingers 7.12502
lthumb 45.5267 0.925546
rfemur -0.876143 -18.309 31.4424
rtibia 51.0829
rfoot -14.6009 -6.93232
rtoes -0.0329816
lfemur -42.2257 6.74815 -35.4748
ltibia 19.6553
lfoot 14.0223 -8.1786
ltoes 18.1105
367
root 26.3842 16.4764 -10.7832 -5.02623 -27.8356 -370.058
lowerback 26.8349 6.13461 0.989016
upperback 5.65159 7.69798 -3.12198
thorax -7.84942 3.57085 -6.51749
lowerneck -20.034 2.79254 8.26197
upperneck 17.8552 3.34619 -8.95188
head 9.21206 1.13972 -4.01261
rclavicle 6.04305e-014 2.8625e-014
rhumerus -29.5519 -23.3677 -1.84872
rradius 62.0573
rwrist -43.521
rhand -26.5657 -54.0722
rfingers 7.12502
rthumb -0.000629701 -84.0519
lclavicle 6.04305e-014 2.8625e-014
lhumerus -81.2213 13.9138 59.5639
lradius 21.694
lwrist -10.7776
lhand 19.7751 -22.4776
lfingers 7.12502
lthumb 44.3255 1.28282
rfemur -0.852704 -17.3532 31.4414
rtibia 50.8031
rfoot -19.7704 -10.1234
rtoes -14.8954
lfemur -43.8832 5.99608 -35.9177
ltibia 19.4081
lfoot 12.3424 -7.0166
ltoes 15.7096
368
root 26.5606 16.3208 -10.8667 -5.29983 -27.408 -369.015
lowerback 26.8118 6.31899 0.0234647
upperback 5.93539 7.67257 -3.05408
thorax -7.6605 3.58176 -5.86763
lowerneck -19.2968 3.08752 8.36842
upperneck 16.9073 3.8375 -9.49985
head 8.81791 1.33762 -4.13339
rclavicle 8.0309e-014 -7.95139e-015
rhumerus -26.6 -24.459 -3.4901
rradius 62.5291
rwrist -43.7354
rhand -27.4182 -51.9631
rfingers 7.12502
rthumb -0.823978 -81.9412
lclavicle 8.0309e-014 -7.95139e-015
lhumerus -82.1931 14.861 54.5821
lradius 20.4701
lwrist -12.7472
lhand 19.2852 -22.9432
lfingers 7.12502
lthumb 43.8687 0.988466
rfemur -1.03462 -16.7972 31.159
rtibia 51.0996
rfoot -23.9934 -11.5706
rtoes -25.3685
lfemur -45.5511 5.52259 -36.002
ltibia 19.452
lfoot 10.8 -6.1241
ltoes 11.8724
369
root 26.7354 16.1699 -10.9504 -5.52083 -27.2496 -368.373
lowerback 26.9504 6.52736 -0.587131
upperback 6.19886 7.77547 -2.93244
thorax -7.52377 3.64254 -5.41956
lowerneck -18.3165 3.33348 8.27318
upperneck 15.746 4.24576 -9.74112
head 8.29742 1.52965 -4.12333
rclavicle -8.90555e-014 5.40694e-014
rhumerus -23.1 -26.8957 -5.40943
rradius 62.6206
rwrist -41.7553
rhand -25.1591 -49.0981
rfingers 7.12502
rthumb 1.35794 -79.0735
lclavicle -8.90555e-014 5.40694e-014
lhumerus -82.8223 15.2635 50.9854
lradius 19.567
lwrist -13.9805
lhand 16.7057 -21.4138
lfingers 7.12502
lthumb 41.4547 3.35631
rfemur -0.846586 -14.0577 31.3219
rtibia 47.7042
rfoot -26.1342 -10.734
rtoes 0.99258
lfemur -46.7899 4.25937 -34.2755
ltibia 19.5431
lfoot 9.12721 -3.83795
ltoes 11.9008
370
root 26.9114 16.0275 -11.0358 -5.53286 -27.3118 -368.303
lowerback 27.2568 6.70915 -0.584162
upperback 6.36422 8.00697 -2.79209
thorax -7.49175 3.75162 -5.362
lowerneck -16.9455 3.5829 8.49147
upperneck 14.3357 4.64442 -10.3449
head 7.65172 1.72081 -4.29425
rclavicle -1.66979e-014 4.77083e-014
rhumerus -19.9349 -29.1607 -7.82689
rradius 62.6197
rwrist -40.1102
rhand -23.7083 -47.4046
rfingers 7.12502
rthumb 2.75912 -77.3665
lclavicle -1.66979e-014 4.77083e-014
lhumerus -82.2064 13.5849 53.5794
lradius 19.908
lwrist -9.84417
lhand 14.5644 -19.7647
lfingers 7.12502
lthumb 39.4415 5.62738
rfemur -0.794852 -12.9683 31.7643
rtibia 46.4818
rfoot -29.2819 -12.7741
rtoes 2.23205
lfemur -47.9554 3.10314 -31.4951
ltibia 20.1823
lfoot 7.4091 -1.55637
ltoes 11.9176
371
root 27.0966 15.8972 -11.1246 -5.15988 -27.5378 -368.889
lowerback 27.5965 6.76879 0.0669059
upperback 6.47028 8.26829 -2.58604
thorax -7.45991 3.86783 -5.60933
lowerneck -16.9959 3.90341 7.75134
upperneck 14.8435 5.14831 -9.51625
head 7.83521 1.98858 -3.83356
rclavicle -1.04958e-013 8.11041e-014
rhumerus -16.6619 -30.8712 -10.7958
rradius 63.075
rwrist -38.931
rhand -22.6591 -45.5891
rfingers 7.12502
rthumb 3.77233 -75.5355
lclavicle -1.04958e-013 8.11041e-014
lhumerus -81.8131 13.2641 52.034
lradius 18.9192
lwrist -11.0005
lhand 11.9267 -18.7511
lfingers 7.12502
lthumb 36.9513 7.32597
rfemur -1.00174 -12.1781 32.6811
rtibia 45.6586
rfoot -32.1409 -14.0129
rtoes 3.35857
lfemur -49.2737 2.18033 -27.747
ltibia 21.1471
lfoot 5.59527 0.796488
ltoes 8.9603
